<svg width="200" height="200" viewBox="0 0 200 200" fill="none" xmlns="http://www.w3.org/2000/svg">
<circle cx="100" cy="100" r="100" fill="#2A4365"/>
<path d="M73.2 63.5L71.8 107L73 133H59L60.2 108.7L59 66L73.2 63.5ZM117.176 63C125.042 63 131.509 66 136.576 72C141.709 78 144.276 85.6333 144.276 94.9C144.276 106.633 141.242 116.1 135.176 123.3C129.109 130.5 121.142 134.1 111.276 134.1C103.609 134.1 97.1758 131.033 91.9758 124.9C86.7758 118.7 84.1758 111.067 84.1758 102C84.1758 90.6667 87.2758 81.3333 93.4758 74C99.6758 66.6667 107.576 63 117.176 63ZM130.676 100.5C130.676 83.6333 125.142 75.2 114.076 75.2C109.009 75.2 105.009 77.1 102.076 80.9C99.2091 84.6333 97.7758 90.2667 97.7758 97.8C97.7758 105.267 99.3091 111.433 102.376 116.3C105.509 121.1 109.609 123.5 114.676 123.5C119.809 123.5 123.742 121.467 126.476 117.4C129.276 113.267 130.676 107.633 130.676 100.5Z" fill="white"/>
</svg>
